<mxfile host="app.diagrams.net" agent="Mozilla/5.0 (Windows NT 10.0; Win64; x64) AppleWebKit/537.36 (KHTML, like Gecko) Chrome/133.0.0.0 Safari/537.36 Edg/133.0.0.0" version="26.0.13">
  <diagram name="Page-1" id="EH8GCX6d2LuEZqYwXCpr">
    <mxGraphModel dx="1678" dy="973" grid="1" gridSize="10" guides="1" tooltips="1" connect="1" arrows="1" fold="1" page="1" pageScale="1" pageWidth="850" pageHeight="1100" math="0" shadow="0">
      <root>
        <mxCell id="0" />
        <mxCell id="1" parent="0" />
        <mxCell id="WYO2JgKoBDC7CnffHV8a-1" value="" style="rounded=0;whiteSpace=wrap;html=1;" vertex="1" parent="1">
          <mxGeometry x="85" y="240" width="680" height="350" as="geometry" />
        </mxCell>
        <mxCell id="WYO2JgKoBDC7CnffHV8a-2" value="&lt;font style=&quot;font-size: 18px;&quot;&gt;Car Parking System&amp;nbsp; &amp;nbsp; &amp;nbsp; &amp;nbsp; &amp;nbsp; &amp;nbsp; &amp;nbsp; &amp;nbsp; &amp;nbsp; &amp;nbsp; &amp;nbsp; &amp;nbsp; &amp;nbsp; &amp;nbsp; &amp;nbsp; &amp;nbsp; &amp;nbsp; &amp;nbsp; &amp;nbsp; &amp;nbsp; &amp;nbsp; &amp;nbsp; &amp;nbsp; &amp;nbsp; &amp;nbsp; &amp;nbsp; &amp;nbsp; &amp;nbsp; &amp;nbsp; &amp;nbsp; &amp;nbsp;Home&amp;nbsp; &amp;nbsp;Add Car&lt;/font&gt;" style="rounded=0;whiteSpace=wrap;html=1;align=left;fillColor=#2D5EFF;strokeColor=#314354;fontColor=#ffffff;" vertex="1" parent="1">
          <mxGeometry x="90" y="250" width="670" height="40" as="geometry" />
        </mxCell>
        <mxCell id="WYO2JgKoBDC7CnffHV8a-3" value="" style="shape=table;startSize=0;container=1;collapsible=0;childLayout=tableLayout;" vertex="1" parent="1">
          <mxGeometry x="109" y="350" width="631" height="130" as="geometry" />
        </mxCell>
        <mxCell id="WYO2JgKoBDC7CnffHV8a-4" value="" style="shape=tableRow;horizontal=0;startSize=0;swimlaneHead=0;swimlaneBody=0;strokeColor=inherit;top=0;left=0;bottom=0;right=0;collapsible=0;dropTarget=0;fillColor=none;points=[[0,0.5],[1,0.5]];portConstraint=eastwest;" vertex="1" parent="WYO2JgKoBDC7CnffHV8a-3">
          <mxGeometry width="631" height="50" as="geometry" />
        </mxCell>
        <mxCell id="WYO2JgKoBDC7CnffHV8a-5" value="Sl" style="shape=partialRectangle;html=1;whiteSpace=wrap;connectable=0;strokeColor=#121212;overflow=hidden;fillColor=#1F1F1F;top=0;left=0;bottom=0;right=0;pointerEvents=1;fontColor=#FFFFFF;" vertex="1" parent="WYO2JgKoBDC7CnffHV8a-4">
          <mxGeometry width="31" height="50" as="geometry">
            <mxRectangle width="31" height="50" as="alternateBounds" />
          </mxGeometry>
        </mxCell>
        <mxCell id="WYO2JgKoBDC7CnffHV8a-6" value="Car Brand" style="shape=partialRectangle;html=1;whiteSpace=wrap;connectable=0;strokeColor=#121212;overflow=hidden;fillColor=#1F1F1F;top=0;left=0;bottom=0;right=0;pointerEvents=1;fontColor=#FFFFFF;" vertex="1" parent="WYO2JgKoBDC7CnffHV8a-4">
          <mxGeometry x="31" width="90" height="50" as="geometry">
            <mxRectangle width="90" height="50" as="alternateBounds" />
          </mxGeometry>
        </mxCell>
        <mxCell id="WYO2JgKoBDC7CnffHV8a-7" value="Car Number" style="shape=partialRectangle;html=1;whiteSpace=wrap;connectable=0;strokeColor=#121212;overflow=hidden;fillColor=#1F1F1F;top=0;left=0;bottom=0;right=0;pointerEvents=1;fontColor=#FFFFFF;" vertex="1" parent="WYO2JgKoBDC7CnffHV8a-4">
          <mxGeometry x="121" width="100" height="50" as="geometry">
            <mxRectangle width="100" height="50" as="alternateBounds" />
          </mxGeometry>
        </mxCell>
        <mxCell id="WYO2JgKoBDC7CnffHV8a-8" value="Car Type" style="shape=partialRectangle;html=1;whiteSpace=wrap;connectable=0;strokeColor=#121212;overflow=hidden;fillColor=#1F1F1F;top=0;left=0;bottom=0;right=0;pointerEvents=1;fontColor=#FFFFFF;" vertex="1" parent="WYO2JgKoBDC7CnffHV8a-4">
          <mxGeometry x="221" width="60" height="50" as="geometry">
            <mxRectangle width="60" height="50" as="alternateBounds" />
          </mxGeometry>
        </mxCell>
        <mxCell id="WYO2JgKoBDC7CnffHV8a-9" value="Incoming Time" style="shape=partialRectangle;html=1;whiteSpace=wrap;connectable=0;strokeColor=#121212;overflow=hidden;fillColor=#1F1F1F;top=0;left=0;bottom=0;right=0;pointerEvents=1;fontColor=#FFFFFF;" vertex="1" parent="WYO2JgKoBDC7CnffHV8a-4">
          <mxGeometry x="281" width="70" height="50" as="geometry">
            <mxRectangle width="70" height="50" as="alternateBounds" />
          </mxGeometry>
        </mxCell>
        <mxCell id="WYO2JgKoBDC7CnffHV8a-10" value="Outgoing Time" style="shape=partialRectangle;html=1;whiteSpace=wrap;connectable=0;strokeColor=#121212;overflow=hidden;fillColor=#1F1F1F;top=0;left=0;bottom=0;right=0;pointerEvents=1;fontColor=#FFFFFF;" vertex="1" parent="WYO2JgKoBDC7CnffHV8a-4">
          <mxGeometry x="351" width="60" height="50" as="geometry">
            <mxRectangle width="60" height="50" as="alternateBounds" />
          </mxGeometry>
        </mxCell>
        <mxCell id="WYO2JgKoBDC7CnffHV8a-11" value="Parking Slot" style="shape=partialRectangle;html=1;whiteSpace=wrap;connectable=0;strokeColor=#121212;overflow=hidden;fillColor=#1F1F1F;top=0;left=0;bottom=0;right=0;pointerEvents=1;fontColor=#FFFFFF;" vertex="1" parent="WYO2JgKoBDC7CnffHV8a-4">
          <mxGeometry x="411" width="70" height="50" as="geometry">
            <mxRectangle width="70" height="50" as="alternateBounds" />
          </mxGeometry>
        </mxCell>
        <mxCell id="WYO2JgKoBDC7CnffHV8a-12" value="Action" style="shape=partialRectangle;html=1;whiteSpace=wrap;connectable=0;strokeColor=#121212;overflow=hidden;fillColor=#1F1F1F;top=0;left=0;bottom=0;right=0;pointerEvents=1;fontColor=#FFFFFF;" vertex="1" parent="WYO2JgKoBDC7CnffHV8a-4">
          <mxGeometry x="481" width="150" height="50" as="geometry">
            <mxRectangle width="150" height="50" as="alternateBounds" />
          </mxGeometry>
        </mxCell>
        <mxCell id="WYO2JgKoBDC7CnffHV8a-13" value="" style="shape=tableRow;horizontal=0;startSize=0;swimlaneHead=0;swimlaneBody=0;strokeColor=inherit;top=0;left=0;bottom=0;right=0;collapsible=0;dropTarget=0;fillColor=none;points=[[0,0.5],[1,0.5]];portConstraint=eastwest;" vertex="1" parent="WYO2JgKoBDC7CnffHV8a-3">
          <mxGeometry y="50" width="631" height="40" as="geometry" />
        </mxCell>
        <mxCell id="WYO2JgKoBDC7CnffHV8a-14" value="1" style="shape=partialRectangle;html=1;whiteSpace=wrap;connectable=0;strokeColor=inherit;overflow=hidden;fillColor=none;top=0;left=0;bottom=0;right=0;pointerEvents=1;" vertex="1" parent="WYO2JgKoBDC7CnffHV8a-13">
          <mxGeometry width="31" height="40" as="geometry">
            <mxRectangle width="31" height="40" as="alternateBounds" />
          </mxGeometry>
        </mxCell>
        <mxCell id="WYO2JgKoBDC7CnffHV8a-15" value="Audi" style="shape=partialRectangle;html=1;whiteSpace=wrap;connectable=0;strokeColor=inherit;overflow=hidden;fillColor=none;top=0;left=0;bottom=0;right=0;pointerEvents=1;" vertex="1" parent="WYO2JgKoBDC7CnffHV8a-13">
          <mxGeometry x="31" width="90" height="40" as="geometry">
            <mxRectangle width="90" height="40" as="alternateBounds" />
          </mxGeometry>
        </mxCell>
        <mxCell id="WYO2JgKoBDC7CnffHV8a-16" value="MP-19-JK-5512" style="shape=partialRectangle;html=1;whiteSpace=wrap;connectable=0;strokeColor=inherit;overflow=hidden;fillColor=none;top=0;left=0;bottom=0;right=0;pointerEvents=1;" vertex="1" parent="WYO2JgKoBDC7CnffHV8a-13">
          <mxGeometry x="121" width="100" height="40" as="geometry">
            <mxRectangle width="100" height="40" as="alternateBounds" />
          </mxGeometry>
        </mxCell>
        <mxCell id="WYO2JgKoBDC7CnffHV8a-17" value="Sedan" style="shape=partialRectangle;html=1;whiteSpace=wrap;connectable=0;strokeColor=inherit;overflow=hidden;fillColor=none;top=0;left=0;bottom=0;right=0;pointerEvents=1;" vertex="1" parent="WYO2JgKoBDC7CnffHV8a-13">
          <mxGeometry x="221" width="60" height="40" as="geometry">
            <mxRectangle width="60" height="40" as="alternateBounds" />
          </mxGeometry>
        </mxCell>
        <mxCell id="WYO2JgKoBDC7CnffHV8a-18" value="10:24 AM" style="shape=partialRectangle;html=1;whiteSpace=wrap;connectable=0;strokeColor=inherit;overflow=hidden;fillColor=none;top=0;left=0;bottom=0;right=0;pointerEvents=1;" vertex="1" parent="WYO2JgKoBDC7CnffHV8a-13">
          <mxGeometry x="281" width="70" height="40" as="geometry">
            <mxRectangle width="70" height="40" as="alternateBounds" />
          </mxGeometry>
        </mxCell>
        <mxCell id="WYO2JgKoBDC7CnffHV8a-19" value="01:00 PM" style="shape=partialRectangle;html=1;whiteSpace=wrap;connectable=0;strokeColor=inherit;overflow=hidden;fillColor=none;top=0;left=0;bottom=0;right=0;pointerEvents=1;" vertex="1" parent="WYO2JgKoBDC7CnffHV8a-13">
          <mxGeometry x="351" width="60" height="40" as="geometry">
            <mxRectangle width="60" height="40" as="alternateBounds" />
          </mxGeometry>
        </mxCell>
        <mxCell id="WYO2JgKoBDC7CnffHV8a-20" value="A-1" style="shape=partialRectangle;html=1;whiteSpace=wrap;connectable=0;strokeColor=inherit;overflow=hidden;fillColor=none;top=0;left=0;bottom=0;right=0;pointerEvents=1;" vertex="1" parent="WYO2JgKoBDC7CnffHV8a-13">
          <mxGeometry x="411" width="70" height="40" as="geometry">
            <mxRectangle width="70" height="40" as="alternateBounds" />
          </mxGeometry>
        </mxCell>
        <mxCell id="WYO2JgKoBDC7CnffHV8a-21" value="" style="shape=partialRectangle;html=1;whiteSpace=wrap;connectable=0;strokeColor=inherit;overflow=hidden;fillColor=none;top=0;left=0;bottom=0;right=0;pointerEvents=1;" vertex="1" parent="WYO2JgKoBDC7CnffHV8a-13">
          <mxGeometry x="481" width="150" height="40" as="geometry">
            <mxRectangle width="150" height="40" as="alternateBounds" />
          </mxGeometry>
        </mxCell>
        <mxCell id="WYO2JgKoBDC7CnffHV8a-22" value="" style="shape=tableRow;horizontal=0;startSize=0;swimlaneHead=0;swimlaneBody=0;strokeColor=inherit;top=0;left=0;bottom=0;right=0;collapsible=0;dropTarget=0;fillColor=none;points=[[0,0.5],[1,0.5]];portConstraint=eastwest;" vertex="1" parent="WYO2JgKoBDC7CnffHV8a-3">
          <mxGeometry y="90" width="631" height="40" as="geometry" />
        </mxCell>
        <mxCell id="WYO2JgKoBDC7CnffHV8a-23" value="2" style="shape=partialRectangle;html=1;whiteSpace=wrap;connectable=0;strokeColor=inherit;overflow=hidden;fillColor=none;top=0;left=0;bottom=0;right=0;pointerEvents=1;" vertex="1" parent="WYO2JgKoBDC7CnffHV8a-22">
          <mxGeometry width="31" height="40" as="geometry">
            <mxRectangle width="31" height="40" as="alternateBounds" />
          </mxGeometry>
        </mxCell>
        <mxCell id="WYO2JgKoBDC7CnffHV8a-24" value="Benz" style="shape=partialRectangle;html=1;whiteSpace=wrap;connectable=0;strokeColor=inherit;overflow=hidden;fillColor=none;top=0;left=0;bottom=0;right=0;pointerEvents=1;" vertex="1" parent="WYO2JgKoBDC7CnffHV8a-22">
          <mxGeometry x="31" width="90" height="40" as="geometry">
            <mxRectangle width="90" height="40" as="alternateBounds" />
          </mxGeometry>
        </mxCell>
        <mxCell id="WYO2JgKoBDC7CnffHV8a-25" value="UP-02-LH-2113" style="shape=partialRectangle;html=1;whiteSpace=wrap;connectable=0;strokeColor=inherit;overflow=hidden;fillColor=none;top=0;left=0;bottom=0;right=0;pointerEvents=1;" vertex="1" parent="WYO2JgKoBDC7CnffHV8a-22">
          <mxGeometry x="121" width="100" height="40" as="geometry">
            <mxRectangle width="100" height="40" as="alternateBounds" />
          </mxGeometry>
        </mxCell>
        <mxCell id="WYO2JgKoBDC7CnffHV8a-26" value="Convertible" style="shape=partialRectangle;html=1;whiteSpace=wrap;connectable=0;strokeColor=inherit;overflow=hidden;fillColor=none;top=0;left=0;bottom=0;right=0;pointerEvents=1;" vertex="1" parent="WYO2JgKoBDC7CnffHV8a-22">
          <mxGeometry x="221" width="60" height="40" as="geometry">
            <mxRectangle width="60" height="40" as="alternateBounds" />
          </mxGeometry>
        </mxCell>
        <mxCell id="WYO2JgKoBDC7CnffHV8a-27" value="01:45 AM" style="shape=partialRectangle;html=1;whiteSpace=wrap;connectable=0;strokeColor=inherit;overflow=hidden;fillColor=none;top=0;left=0;bottom=0;right=0;pointerEvents=1;" vertex="1" parent="WYO2JgKoBDC7CnffHV8a-22">
          <mxGeometry x="281" width="70" height="40" as="geometry">
            <mxRectangle width="70" height="40" as="alternateBounds" />
          </mxGeometry>
        </mxCell>
        <mxCell id="WYO2JgKoBDC7CnffHV8a-28" value="10:20 AM" style="shape=partialRectangle;html=1;whiteSpace=wrap;connectable=0;strokeColor=inherit;overflow=hidden;fillColor=none;top=0;left=0;bottom=0;right=0;pointerEvents=1;" vertex="1" parent="WYO2JgKoBDC7CnffHV8a-22">
          <mxGeometry x="351" width="60" height="40" as="geometry">
            <mxRectangle width="60" height="40" as="alternateBounds" />
          </mxGeometry>
        </mxCell>
        <mxCell id="WYO2JgKoBDC7CnffHV8a-29" value="B-2" style="shape=partialRectangle;html=1;whiteSpace=wrap;connectable=0;strokeColor=inherit;overflow=hidden;fillColor=none;top=0;left=0;bottom=0;right=0;pointerEvents=1;" vertex="1" parent="WYO2JgKoBDC7CnffHV8a-22">
          <mxGeometry x="411" width="70" height="40" as="geometry">
            <mxRectangle width="70" height="40" as="alternateBounds" />
          </mxGeometry>
        </mxCell>
        <mxCell id="WYO2JgKoBDC7CnffHV8a-30" value="" style="shape=partialRectangle;html=1;whiteSpace=wrap;connectable=0;strokeColor=inherit;overflow=hidden;fillColor=none;top=0;left=0;bottom=0;right=0;pointerEvents=1;" vertex="1" parent="WYO2JgKoBDC7CnffHV8a-22">
          <mxGeometry x="481" width="150" height="40" as="geometry">
            <mxRectangle width="150" height="40" as="alternateBounds" />
          </mxGeometry>
        </mxCell>
        <mxCell id="WYO2JgKoBDC7CnffHV8a-32" value="&lt;b&gt;&lt;font style=&quot;font-size: 15px;&quot;&gt;Car Parking&lt;/font&gt;&lt;/b&gt;" style="text;html=1;align=center;verticalAlign=middle;whiteSpace=wrap;rounded=0;" vertex="1" parent="1">
          <mxGeometry x="125" y="310" width="110" height="30" as="geometry" />
        </mxCell>
        <mxCell id="WYO2JgKoBDC7CnffHV8a-33" value="Add New Car" style="text;html=1;align=center;verticalAlign=middle;whiteSpace=wrap;rounded=1;fillColor=#74FF49;strokeColor=#000000;glass=0;shadow=0;" vertex="1" parent="1">
          <mxGeometry x="630" y="300" width="90" height="30" as="geometry" />
        </mxCell>
        <mxCell id="WYO2JgKoBDC7CnffHV8a-34" value="&lt;b&gt;View&lt;/b&gt;" style="text;html=1;align=center;verticalAlign=middle;whiteSpace=wrap;rounded=1;fillColor=light-dark(#FFCE9F,#392F3F);strokeColor=#121212;strokeWidth=2;" vertex="1" parent="1">
          <mxGeometry x="600" y="405" width="30" height="20" as="geometry" />
        </mxCell>
        <mxCell id="WYO2JgKoBDC7CnffHV8a-36" value="&lt;b&gt;Edit&lt;/b&gt;" style="text;html=1;align=center;verticalAlign=middle;whiteSpace=wrap;rounded=1;fillColor=light-dark(#FFFF33,#392F3F);strokeColor=#050505;strokeWidth=2;" vertex="1" parent="1">
          <mxGeometry x="640" y="405" width="30" height="20" as="geometry" />
        </mxCell>
        <mxCell id="WYO2JgKoBDC7CnffHV8a-37" value="&lt;font style=&quot;color: rgb(255, 255, 255);&quot;&gt;&lt;b style=&quot;&quot;&gt;Delete&lt;/b&gt;&lt;/font&gt;" style="text;html=1;align=center;verticalAlign=middle;whiteSpace=wrap;rounded=1;fillColor=light-dark(#FF0000,#392F3F);strokeColor=#000000;strokeWidth=2;" vertex="1" parent="1">
          <mxGeometry x="680" y="405" width="50" height="20" as="geometry" />
        </mxCell>
        <mxCell id="WYO2JgKoBDC7CnffHV8a-39" value="&lt;b&gt;View&lt;/b&gt;" style="text;html=1;align=center;verticalAlign=middle;whiteSpace=wrap;rounded=1;fillColor=light-dark(#FFCE9F,#392F3F);strokeColor=#121212;strokeWidth=2;" vertex="1" parent="1">
          <mxGeometry x="600" y="450" width="30" height="20" as="geometry" />
        </mxCell>
        <mxCell id="WYO2JgKoBDC7CnffHV8a-40" value="&lt;b&gt;Edit&lt;/b&gt;" style="text;html=1;align=center;verticalAlign=middle;whiteSpace=wrap;rounded=1;fillColor=light-dark(#FFFF33,#392F3F);strokeColor=#050505;strokeWidth=2;" vertex="1" parent="1">
          <mxGeometry x="640" y="450" width="30" height="20" as="geometry" />
        </mxCell>
        <mxCell id="WYO2JgKoBDC7CnffHV8a-41" value="&lt;font style=&quot;color: rgb(255, 255, 255);&quot;&gt;&lt;b style=&quot;&quot;&gt;Delete&lt;/b&gt;&lt;/font&gt;" style="text;html=1;align=center;verticalAlign=middle;whiteSpace=wrap;rounded=1;fillColor=light-dark(#FF0000,#392F3F);strokeColor=#000000;strokeWidth=2;" vertex="1" parent="1">
          <mxGeometry x="680" y="450" width="50" height="20" as="geometry" />
        </mxCell>
        <mxCell id="WYO2JgKoBDC7CnffHV8a-42" value="" style="rounded=0;whiteSpace=wrap;html=1;" vertex="1" parent="1">
          <mxGeometry x="60" y="640" width="710" height="540" as="geometry" />
        </mxCell>
        <mxCell id="WYO2JgKoBDC7CnffHV8a-43" value="&lt;font style=&quot;font-size: 20px;&quot;&gt;&lt;b&gt;Add New Car&lt;/b&gt;&lt;/font&gt;" style="text;html=1;align=center;verticalAlign=middle;whiteSpace=wrap;rounded=0;" vertex="1" parent="1">
          <mxGeometry x="85" y="730" width="130" height="30" as="geometry" />
        </mxCell>
        <mxCell id="WYO2JgKoBDC7CnffHV8a-44" value="Car Brand" style="text;html=1;align=center;verticalAlign=middle;whiteSpace=wrap;rounded=0;" vertex="1" parent="1">
          <mxGeometry x="85" y="770" width="60" height="30" as="geometry" />
        </mxCell>
        <mxCell id="WYO2JgKoBDC7CnffHV8a-45" value="" style="rounded=1;whiteSpace=wrap;html=1;" vertex="1" parent="1">
          <mxGeometry x="85" y="800" width="655" height="30" as="geometry" />
        </mxCell>
        <mxCell id="WYO2JgKoBDC7CnffHV8a-46" value="&lt;font style=&quot;font-size: 18px;&quot;&gt;Car Parking System&amp;nbsp; &amp;nbsp; &amp;nbsp; &amp;nbsp; &amp;nbsp; &amp;nbsp; &amp;nbsp; &amp;nbsp; &amp;nbsp; &amp;nbsp; &amp;nbsp; &amp;nbsp; &amp;nbsp; &amp;nbsp; &amp;nbsp; &amp;nbsp; &amp;nbsp; &amp;nbsp; &amp;nbsp; &amp;nbsp; &amp;nbsp; &amp;nbsp; &amp;nbsp; &amp;nbsp; &amp;nbsp; &amp;nbsp; &amp;nbsp; &amp;nbsp; &amp;nbsp; &amp;nbsp; &amp;nbsp;Home&amp;nbsp; &amp;nbsp;Add Car&lt;/font&gt;" style="rounded=0;whiteSpace=wrap;html=1;align=left;fillColor=#2D5EFF;strokeColor=#314354;fontColor=#ffffff;" vertex="1" parent="1">
          <mxGeometry x="80" y="650" width="670" height="40" as="geometry" />
        </mxCell>
        <mxCell id="WYO2JgKoBDC7CnffHV8a-47" value="Car Number" style="text;html=1;align=center;verticalAlign=middle;whiteSpace=wrap;rounded=0;" vertex="1" parent="1">
          <mxGeometry x="85" y="830" width="75" height="30" as="geometry" />
        </mxCell>
        <mxCell id="WYO2JgKoBDC7CnffHV8a-48" value="" style="rounded=1;whiteSpace=wrap;html=1;" vertex="1" parent="1">
          <mxGeometry x="85" y="860" width="655" height="30" as="geometry" />
        </mxCell>
        <mxCell id="WYO2JgKoBDC7CnffHV8a-49" value="Car Type" style="text;html=1;align=center;verticalAlign=middle;whiteSpace=wrap;rounded=0;" vertex="1" parent="1">
          <mxGeometry x="85" y="890" width="60" height="30" as="geometry" />
        </mxCell>
        <mxCell id="WYO2JgKoBDC7CnffHV8a-50" value="" style="rounded=1;whiteSpace=wrap;html=1;" vertex="1" parent="1">
          <mxGeometry x="85" y="920" width="655" height="30" as="geometry" />
        </mxCell>
        <mxCell id="WYO2JgKoBDC7CnffHV8a-51" value="Incoming Time" style="text;html=1;align=center;verticalAlign=middle;whiteSpace=wrap;rounded=0;" vertex="1" parent="1">
          <mxGeometry x="85" y="950" width="85" height="30" as="geometry" />
        </mxCell>
        <mxCell id="WYO2JgKoBDC7CnffHV8a-52" value="" style="rounded=1;whiteSpace=wrap;html=1;" vertex="1" parent="1">
          <mxGeometry x="85" y="980" width="655" height="30" as="geometry" />
        </mxCell>
        <mxCell id="WYO2JgKoBDC7CnffHV8a-53" value="Outgoing Time" style="text;html=1;align=center;verticalAlign=middle;whiteSpace=wrap;rounded=0;" vertex="1" parent="1">
          <mxGeometry x="85" y="1010" width="85" height="30" as="geometry" />
        </mxCell>
        <mxCell id="WYO2JgKoBDC7CnffHV8a-54" value="" style="rounded=1;whiteSpace=wrap;html=1;" vertex="1" parent="1">
          <mxGeometry x="85" y="1040" width="655" height="30" as="geometry" />
        </mxCell>
        <mxCell id="WYO2JgKoBDC7CnffHV8a-55" value="Parking Slot" style="text;html=1;align=center;verticalAlign=middle;whiteSpace=wrap;rounded=0;" vertex="1" parent="1">
          <mxGeometry x="85" y="1070" width="85" height="30" as="geometry" />
        </mxCell>
        <mxCell id="WYO2JgKoBDC7CnffHV8a-56" value="" style="rounded=1;whiteSpace=wrap;html=1;" vertex="1" parent="1">
          <mxGeometry x="85" y="1100" width="655" height="30" as="geometry" />
        </mxCell>
        <mxCell id="WYO2JgKoBDC7CnffHV8a-57" value="&lt;font style=&quot;font-size: 18px; color: rgb(201, 201, 201);&quot;&gt;Create&lt;/font&gt;" style="rounded=1;whiteSpace=wrap;html=1;strokeColor=#C9C9C9;fillColor=light-dark(#1a53ff, #ededed);" vertex="1" parent="1">
          <mxGeometry x="85" y="1140" width="70" height="30" as="geometry" />
        </mxCell>
        <mxCell id="WYO2JgKoBDC7CnffHV8a-60" value="" style="rounded=0;whiteSpace=wrap;html=1;" vertex="1" parent="1">
          <mxGeometry x="60" y="1250" width="710" height="540" as="geometry" />
        </mxCell>
        <mxCell id="WYO2JgKoBDC7CnffHV8a-61" value="&lt;font style=&quot;font-size: 20px;&quot;&gt;&lt;b&gt;Edit Car Details&lt;/b&gt;&lt;/font&gt;" style="text;html=1;align=center;verticalAlign=middle;whiteSpace=wrap;rounded=0;" vertex="1" parent="1">
          <mxGeometry x="85" y="1340" width="165" height="30" as="geometry" />
        </mxCell>
        <mxCell id="WYO2JgKoBDC7CnffHV8a-62" value="Car Brand" style="text;html=1;align=center;verticalAlign=middle;whiteSpace=wrap;rounded=0;" vertex="1" parent="1">
          <mxGeometry x="85" y="1380" width="60" height="30" as="geometry" />
        </mxCell>
        <mxCell id="WYO2JgKoBDC7CnffHV8a-63" value="&lt;font style=&quot;color: rgb(161, 161, 161);&quot;&gt;Audi&lt;/font&gt;" style="rounded=1;whiteSpace=wrap;html=1;align=left;" vertex="1" parent="1">
          <mxGeometry x="85" y="1410" width="655" height="30" as="geometry" />
        </mxCell>
        <mxCell id="WYO2JgKoBDC7CnffHV8a-64" value="&lt;font style=&quot;font-size: 18px;&quot;&gt;Car Parking System&amp;nbsp; &amp;nbsp; &amp;nbsp; &amp;nbsp; &amp;nbsp; &amp;nbsp; &amp;nbsp; &amp;nbsp; &amp;nbsp; &amp;nbsp; &amp;nbsp; &amp;nbsp; &amp;nbsp; &amp;nbsp; &amp;nbsp; &amp;nbsp; &amp;nbsp; &amp;nbsp; &amp;nbsp; &amp;nbsp; &amp;nbsp; &amp;nbsp; &amp;nbsp; &amp;nbsp; &amp;nbsp; &amp;nbsp; &amp;nbsp; &amp;nbsp; &amp;nbsp; &amp;nbsp; &amp;nbsp;Home&amp;nbsp; &amp;nbsp;Add Car&lt;/font&gt;" style="rounded=0;whiteSpace=wrap;html=1;align=left;fillColor=#2D5EFF;strokeColor=#314354;fontColor=#ffffff;" vertex="1" parent="1">
          <mxGeometry x="80" y="1260" width="670" height="40" as="geometry" />
        </mxCell>
        <mxCell id="WYO2JgKoBDC7CnffHV8a-65" value="Car Number" style="text;html=1;align=center;verticalAlign=middle;whiteSpace=wrap;rounded=0;" vertex="1" parent="1">
          <mxGeometry x="85" y="1440" width="75" height="30" as="geometry" />
        </mxCell>
        <mxCell id="WYO2JgKoBDC7CnffHV8a-66" value="&lt;font style=&quot;color: rgb(161, 161, 161);&quot;&gt;MP-19-JK-5512&lt;/font&gt;" style="rounded=1;whiteSpace=wrap;html=1;align=left;" vertex="1" parent="1">
          <mxGeometry x="85" y="1470" width="655" height="30" as="geometry" />
        </mxCell>
        <mxCell id="WYO2JgKoBDC7CnffHV8a-67" value="Car Type" style="text;html=1;align=center;verticalAlign=middle;whiteSpace=wrap;rounded=0;" vertex="1" parent="1">
          <mxGeometry x="85" y="1500" width="60" height="30" as="geometry" />
        </mxCell>
        <mxCell id="WYO2JgKoBDC7CnffHV8a-68" value="&lt;font style=&quot;color: rgb(161, 161, 161);&quot;&gt;Sedan&lt;/font&gt;" style="rounded=1;whiteSpace=wrap;html=1;align=left;" vertex="1" parent="1">
          <mxGeometry x="85" y="1530" width="655" height="30" as="geometry" />
        </mxCell>
        <mxCell id="WYO2JgKoBDC7CnffHV8a-69" value="Incoming Time" style="text;html=1;align=center;verticalAlign=middle;whiteSpace=wrap;rounded=0;" vertex="1" parent="1">
          <mxGeometry x="85" y="1560" width="85" height="30" as="geometry" />
        </mxCell>
        <mxCell id="WYO2JgKoBDC7CnffHV8a-70" value="&lt;font style=&quot;color: rgb(161, 161, 161);&quot;&gt;10:24 AM&lt;/font&gt;" style="rounded=1;whiteSpace=wrap;html=1;align=left;" vertex="1" parent="1">
          <mxGeometry x="85" y="1590" width="655" height="30" as="geometry" />
        </mxCell>
        <mxCell id="WYO2JgKoBDC7CnffHV8a-71" value="Outgoing Time" style="text;html=1;align=center;verticalAlign=middle;whiteSpace=wrap;rounded=0;" vertex="1" parent="1">
          <mxGeometry x="85" y="1620" width="85" height="30" as="geometry" />
        </mxCell>
        <mxCell id="WYO2JgKoBDC7CnffHV8a-72" value="&lt;font style=&quot;color: rgb(161, 161, 161);&quot;&gt;01:00 PM&lt;/font&gt;" style="rounded=1;whiteSpace=wrap;html=1;align=left;" vertex="1" parent="1">
          <mxGeometry x="85" y="1650" width="655" height="30" as="geometry" />
        </mxCell>
        <mxCell id="WYO2JgKoBDC7CnffHV8a-73" value="Parking Slot" style="text;html=1;align=center;verticalAlign=middle;whiteSpace=wrap;rounded=0;" vertex="1" parent="1">
          <mxGeometry x="85" y="1680" width="75" height="30" as="geometry" />
        </mxCell>
        <mxCell id="WYO2JgKoBDC7CnffHV8a-74" value="&lt;font style=&quot;color: rgb(161, 161, 161);&quot;&gt;A-1&lt;/font&gt;" style="rounded=1;whiteSpace=wrap;html=1;align=left;" vertex="1" parent="1">
          <mxGeometry x="85" y="1710" width="655" height="30" as="geometry" />
        </mxCell>
        <mxCell id="WYO2JgKoBDC7CnffHV8a-75" value="&lt;font style=&quot;font-size: 18px; color: rgb(201, 201, 201);&quot;&gt;Create&lt;/font&gt;" style="rounded=1;whiteSpace=wrap;html=1;fillColor=light-dark(#1a53ff, #2566a8);" vertex="1" parent="1">
          <mxGeometry x="85" y="1750" width="70" height="30" as="geometry" />
        </mxCell>
        <mxCell id="WYO2JgKoBDC7CnffHV8a-77" value="" style="rounded=0;whiteSpace=wrap;html=1;" vertex="1" parent="1">
          <mxGeometry x="60" y="1950" width="710" height="430" as="geometry" />
        </mxCell>
        <mxCell id="WYO2JgKoBDC7CnffHV8a-78" value="&lt;font style=&quot;font-size: 18px;&quot;&gt;Car Parking System&amp;nbsp; &amp;nbsp; &amp;nbsp; &amp;nbsp; &amp;nbsp; &amp;nbsp; &amp;nbsp; &amp;nbsp; &amp;nbsp; &amp;nbsp; &amp;nbsp; &amp;nbsp; &amp;nbsp; &amp;nbsp; &amp;nbsp; &amp;nbsp; &amp;nbsp; &amp;nbsp; &amp;nbsp; &amp;nbsp; &amp;nbsp; &amp;nbsp; &amp;nbsp; &amp;nbsp; &amp;nbsp; &amp;nbsp; &amp;nbsp; &amp;nbsp; &amp;nbsp; &amp;nbsp; &amp;nbsp;Home&amp;nbsp; &amp;nbsp;Add Car&lt;/font&gt;" style="rounded=0;whiteSpace=wrap;html=1;align=left;fillColor=#2D5EFF;strokeColor=#314354;fontColor=#ffffff;" vertex="1" parent="1">
          <mxGeometry x="85" y="1970" width="665" height="40" as="geometry" />
        </mxCell>
        <mxCell id="WYO2JgKoBDC7CnffHV8a-79" value="&lt;font style=&quot;font-size: 20px;&quot;&gt;&lt;b&gt;Car Details&lt;/b&gt;&lt;/font&gt;" style="text;html=1;align=center;verticalAlign=middle;whiteSpace=wrap;rounded=0;" vertex="1" parent="1">
          <mxGeometry x="92.5" y="2030" width="115" height="30" as="geometry" />
        </mxCell>
        <mxCell id="WYO2JgKoBDC7CnffHV8a-80" value="" style="rounded=1;whiteSpace=wrap;html=1;" vertex="1" parent="1">
          <mxGeometry x="93.75" y="2070" width="356.25" height="280" as="geometry" />
        </mxCell>
        <mxCell id="WYO2JgKoBDC7CnffHV8a-81" value="&lt;font style=&quot;font-size: 18px;&quot;&gt;&lt;b&gt;Car Brand:&lt;/b&gt;&lt;/font&gt;" style="text;html=1;align=center;verticalAlign=middle;whiteSpace=wrap;rounded=0;" vertex="1" parent="1">
          <mxGeometry x="108.5" y="2080" width="106.5" height="40" as="geometry" />
        </mxCell>
        <mxCell id="WYO2JgKoBDC7CnffHV8a-83" value="&lt;font style=&quot;font-size: 18px;&quot;&gt;Audi&lt;/font&gt;" style="text;html=1;align=center;verticalAlign=middle;whiteSpace=wrap;rounded=0;" vertex="1" parent="1">
          <mxGeometry x="220" y="2085" width="73.5" height="30" as="geometry" />
        </mxCell>
        <mxCell id="WYO2JgKoBDC7CnffHV8a-84" value="&lt;font style=&quot;font-size: 18px;&quot;&gt;&lt;b&gt;Car Number:&lt;/b&gt;&lt;/font&gt;" style="text;html=1;align=center;verticalAlign=middle;whiteSpace=wrap;rounded=0;" vertex="1" parent="1">
          <mxGeometry x="109" y="2115" width="117.5" height="40" as="geometry" />
        </mxCell>
        <mxCell id="WYO2JgKoBDC7CnffHV8a-85" value="&lt;font style=&quot;font-size: 18px;&quot;&gt;MP-19-JK-5512&lt;/font&gt;" style="text;html=1;align=center;verticalAlign=middle;whiteSpace=wrap;rounded=0;" vertex="1" parent="1">
          <mxGeometry x="250" y="2120" width="143.5" height="30" as="geometry" />
        </mxCell>
        <mxCell id="WYO2JgKoBDC7CnffHV8a-86" value="&lt;font style=&quot;font-size: 18px;&quot;&gt;&lt;b&gt;Car Type:&lt;/b&gt;&lt;/font&gt;" style="text;html=1;align=center;verticalAlign=middle;whiteSpace=wrap;rounded=0;" vertex="1" parent="1">
          <mxGeometry x="109" y="2155" width="95" height="40" as="geometry" />
        </mxCell>
        <mxCell id="WYO2JgKoBDC7CnffHV8a-87" value="&lt;font style=&quot;font-size: 18px;&quot;&gt;Sedan&lt;/font&gt;" style="text;html=1;align=center;verticalAlign=middle;whiteSpace=wrap;rounded=0;" vertex="1" parent="1">
          <mxGeometry x="215" y="2160" width="73.5" height="30" as="geometry" />
        </mxCell>
        <mxCell id="WYO2JgKoBDC7CnffHV8a-88" value="&lt;font style=&quot;font-size: 18px;&quot;&gt;&lt;b style=&quot;&quot;&gt;Incoming Time:&lt;/b&gt;&lt;/font&gt;" style="text;html=1;align=center;verticalAlign=middle;whiteSpace=wrap;rounded=0;" vertex="1" parent="1">
          <mxGeometry x="108.5" y="2190" width="140" height="40" as="geometry" />
        </mxCell>
        <mxCell id="WYO2JgKoBDC7CnffHV8a-89" value="&lt;span style=&quot;text-align: left;&quot;&gt;&lt;font style=&quot;font-size: 18px; color: rgb(0, 0, 0);&quot;&gt;10:24 AM&lt;/font&gt;&lt;/span&gt;" style="text;html=1;align=center;verticalAlign=middle;whiteSpace=wrap;rounded=0;" vertex="1" parent="1">
          <mxGeometry x="260" y="2195" width="90" height="30" as="geometry" />
        </mxCell>
        <mxCell id="WYO2JgKoBDC7CnffHV8a-90" value="&lt;font style=&quot;font-size: 18px;&quot;&gt;&lt;b&gt;Outgoing Time:&lt;/b&gt;&lt;/font&gt;" style="text;html=1;align=center;verticalAlign=middle;whiteSpace=wrap;rounded=0;" vertex="1" parent="1">
          <mxGeometry x="110" y="2225" width="140" height="40" as="geometry" />
        </mxCell>
        <mxCell id="WYO2JgKoBDC7CnffHV8a-91" value="&lt;span style=&quot;text-align: left;&quot;&gt;&lt;font style=&quot;color: rgb(0, 0, 0); font-size: 18px;&quot;&gt;01:00 PM&lt;/font&gt;&lt;/span&gt;" style="text;html=1;align=center;verticalAlign=middle;whiteSpace=wrap;rounded=0;" vertex="1" parent="1">
          <mxGeometry x="245" y="2230" width="120" height="30" as="geometry" />
        </mxCell>
        <mxCell id="WYO2JgKoBDC7CnffHV8a-93" value="&lt;font style=&quot;font-size: 18px;&quot;&gt;&lt;b&gt;Parking Slot:&lt;/b&gt;&lt;/font&gt;" style="text;html=1;align=center;verticalAlign=middle;whiteSpace=wrap;rounded=0;" vertex="1" parent="1">
          <mxGeometry x="110" y="2265" width="121" height="30" as="geometry" />
        </mxCell>
        <mxCell id="WYO2JgKoBDC7CnffHV8a-94" value="&lt;span style=&quot;text-align: left;&quot;&gt;&lt;font style=&quot;color: rgb(0, 0, 0); font-size: 18px;&quot;&gt;A-1&lt;/font&gt;&lt;/span&gt;" style="text;html=1;align=center;verticalAlign=middle;whiteSpace=wrap;rounded=0;" vertex="1" parent="1">
          <mxGeometry x="235" y="2265" width="100" height="30" as="geometry" />
        </mxCell>
        <mxCell id="WYO2JgKoBDC7CnffHV8a-95" value="&lt;font style=&quot;font-size: 18px; color: rgb(201, 201, 201);&quot;&gt;Back to List&lt;/font&gt;" style="rounded=1;whiteSpace=wrap;html=1;fillColor=light-dark(#1a53ff, #262a2d);" vertex="1" parent="1">
          <mxGeometry x="109" y="2300" width="101" height="30" as="geometry" />
        </mxCell>
        <mxCell id="WYO2JgKoBDC7CnffHV8a-96" value="" style="rounded=0;whiteSpace=wrap;html=1;" vertex="1" parent="1">
          <mxGeometry x="76.87" y="2420" width="680" height="350" as="geometry" />
        </mxCell>
        <mxCell id="WYO2JgKoBDC7CnffHV8a-97" value="&lt;font style=&quot;font-size: 18px;&quot;&gt;Car Parking System&amp;nbsp; &amp;nbsp; &amp;nbsp; &amp;nbsp; &amp;nbsp; &amp;nbsp; &amp;nbsp; &amp;nbsp; &amp;nbsp; &amp;nbsp; &amp;nbsp; &amp;nbsp; &amp;nbsp; &amp;nbsp; &amp;nbsp; &amp;nbsp; &amp;nbsp; &amp;nbsp; &amp;nbsp; &amp;nbsp; &amp;nbsp; &amp;nbsp; &amp;nbsp; &amp;nbsp; &amp;nbsp; &amp;nbsp; &amp;nbsp; &amp;nbsp; &amp;nbsp; &amp;nbsp; &amp;nbsp;Home&amp;nbsp; &amp;nbsp;Add Car&lt;/font&gt;" style="rounded=0;whiteSpace=wrap;html=1;align=left;fillColor=#2D5EFF;strokeColor=#314354;fontColor=#ffffff;" vertex="1" parent="1">
          <mxGeometry x="81.87" y="2430" width="670" height="40" as="geometry" />
        </mxCell>
        <mxCell id="WYO2JgKoBDC7CnffHV8a-98" value="" style="shape=table;startSize=0;container=1;collapsible=0;childLayout=tableLayout;" vertex="1" parent="1">
          <mxGeometry x="100.87" y="2530" width="631" height="130" as="geometry" />
        </mxCell>
        <mxCell id="WYO2JgKoBDC7CnffHV8a-99" value="" style="shape=tableRow;horizontal=0;startSize=0;swimlaneHead=0;swimlaneBody=0;strokeColor=inherit;top=0;left=0;bottom=0;right=0;collapsible=0;dropTarget=0;fillColor=none;points=[[0,0.5],[1,0.5]];portConstraint=eastwest;" vertex="1" parent="WYO2JgKoBDC7CnffHV8a-98">
          <mxGeometry width="631" height="50" as="geometry" />
        </mxCell>
        <mxCell id="WYO2JgKoBDC7CnffHV8a-100" value="Sl" style="shape=partialRectangle;html=1;whiteSpace=wrap;connectable=0;strokeColor=#121212;overflow=hidden;fillColor=#1F1F1F;top=0;left=0;bottom=0;right=0;pointerEvents=1;fontColor=#FFFFFF;" vertex="1" parent="WYO2JgKoBDC7CnffHV8a-99">
          <mxGeometry width="31" height="50" as="geometry">
            <mxRectangle width="31" height="50" as="alternateBounds" />
          </mxGeometry>
        </mxCell>
        <mxCell id="WYO2JgKoBDC7CnffHV8a-101" value="Car Brand" style="shape=partialRectangle;html=1;whiteSpace=wrap;connectable=0;strokeColor=#121212;overflow=hidden;fillColor=#1F1F1F;top=0;left=0;bottom=0;right=0;pointerEvents=1;fontColor=#FFFFFF;" vertex="1" parent="WYO2JgKoBDC7CnffHV8a-99">
          <mxGeometry x="31" width="90" height="50" as="geometry">
            <mxRectangle width="90" height="50" as="alternateBounds" />
          </mxGeometry>
        </mxCell>
        <mxCell id="WYO2JgKoBDC7CnffHV8a-102" value="Car Number" style="shape=partialRectangle;html=1;whiteSpace=wrap;connectable=0;strokeColor=#121212;overflow=hidden;fillColor=#1F1F1F;top=0;left=0;bottom=0;right=0;pointerEvents=1;fontColor=#FFFFFF;" vertex="1" parent="WYO2JgKoBDC7CnffHV8a-99">
          <mxGeometry x="121" width="100" height="50" as="geometry">
            <mxRectangle width="100" height="50" as="alternateBounds" />
          </mxGeometry>
        </mxCell>
        <mxCell id="WYO2JgKoBDC7CnffHV8a-103" value="Car Type" style="shape=partialRectangle;html=1;whiteSpace=wrap;connectable=0;strokeColor=#121212;overflow=hidden;fillColor=#1F1F1F;top=0;left=0;bottom=0;right=0;pointerEvents=1;fontColor=#FFFFFF;" vertex="1" parent="WYO2JgKoBDC7CnffHV8a-99">
          <mxGeometry x="221" width="60" height="50" as="geometry">
            <mxRectangle width="60" height="50" as="alternateBounds" />
          </mxGeometry>
        </mxCell>
        <mxCell id="WYO2JgKoBDC7CnffHV8a-104" value="Incoming Time" style="shape=partialRectangle;html=1;whiteSpace=wrap;connectable=0;strokeColor=#121212;overflow=hidden;fillColor=#1F1F1F;top=0;left=0;bottom=0;right=0;pointerEvents=1;fontColor=#FFFFFF;" vertex="1" parent="WYO2JgKoBDC7CnffHV8a-99">
          <mxGeometry x="281" width="70" height="50" as="geometry">
            <mxRectangle width="70" height="50" as="alternateBounds" />
          </mxGeometry>
        </mxCell>
        <mxCell id="WYO2JgKoBDC7CnffHV8a-105" value="Outgoing Time" style="shape=partialRectangle;html=1;whiteSpace=wrap;connectable=0;strokeColor=#121212;overflow=hidden;fillColor=#1F1F1F;top=0;left=0;bottom=0;right=0;pointerEvents=1;fontColor=#FFFFFF;" vertex="1" parent="WYO2JgKoBDC7CnffHV8a-99">
          <mxGeometry x="351" width="60" height="50" as="geometry">
            <mxRectangle width="60" height="50" as="alternateBounds" />
          </mxGeometry>
        </mxCell>
        <mxCell id="WYO2JgKoBDC7CnffHV8a-106" value="Parking Slot" style="shape=partialRectangle;html=1;whiteSpace=wrap;connectable=0;strokeColor=#121212;overflow=hidden;fillColor=#1F1F1F;top=0;left=0;bottom=0;right=0;pointerEvents=1;fontColor=#FFFFFF;" vertex="1" parent="WYO2JgKoBDC7CnffHV8a-99">
          <mxGeometry x="411" width="70" height="50" as="geometry">
            <mxRectangle width="70" height="50" as="alternateBounds" />
          </mxGeometry>
        </mxCell>
        <mxCell id="WYO2JgKoBDC7CnffHV8a-107" value="Action" style="shape=partialRectangle;html=1;whiteSpace=wrap;connectable=0;strokeColor=#121212;overflow=hidden;fillColor=#1F1F1F;top=0;left=0;bottom=0;right=0;pointerEvents=1;fontColor=#FFFFFF;" vertex="1" parent="WYO2JgKoBDC7CnffHV8a-99">
          <mxGeometry x="481" width="150" height="50" as="geometry">
            <mxRectangle width="150" height="50" as="alternateBounds" />
          </mxGeometry>
        </mxCell>
        <mxCell id="WYO2JgKoBDC7CnffHV8a-108" value="" style="shape=tableRow;horizontal=0;startSize=0;swimlaneHead=0;swimlaneBody=0;strokeColor=inherit;top=0;left=0;bottom=0;right=0;collapsible=0;dropTarget=0;fillColor=none;points=[[0,0.5],[1,0.5]];portConstraint=eastwest;" vertex="1" parent="WYO2JgKoBDC7CnffHV8a-98">
          <mxGeometry y="50" width="631" height="40" as="geometry" />
        </mxCell>
        <mxCell id="WYO2JgKoBDC7CnffHV8a-109" value="1" style="shape=partialRectangle;html=1;whiteSpace=wrap;connectable=0;strokeColor=inherit;overflow=hidden;fillColor=none;top=0;left=0;bottom=0;right=0;pointerEvents=1;" vertex="1" parent="WYO2JgKoBDC7CnffHV8a-108">
          <mxGeometry width="31" height="40" as="geometry">
            <mxRectangle width="31" height="40" as="alternateBounds" />
          </mxGeometry>
        </mxCell>
        <mxCell id="WYO2JgKoBDC7CnffHV8a-110" value="Audi" style="shape=partialRectangle;html=1;whiteSpace=wrap;connectable=0;strokeColor=inherit;overflow=hidden;fillColor=none;top=0;left=0;bottom=0;right=0;pointerEvents=1;" vertex="1" parent="WYO2JgKoBDC7CnffHV8a-108">
          <mxGeometry x="31" width="90" height="40" as="geometry">
            <mxRectangle width="90" height="40" as="alternateBounds" />
          </mxGeometry>
        </mxCell>
        <mxCell id="WYO2JgKoBDC7CnffHV8a-111" value="MP-19-JK-5512" style="shape=partialRectangle;html=1;whiteSpace=wrap;connectable=0;strokeColor=inherit;overflow=hidden;fillColor=none;top=0;left=0;bottom=0;right=0;pointerEvents=1;" vertex="1" parent="WYO2JgKoBDC7CnffHV8a-108">
          <mxGeometry x="121" width="100" height="40" as="geometry">
            <mxRectangle width="100" height="40" as="alternateBounds" />
          </mxGeometry>
        </mxCell>
        <mxCell id="WYO2JgKoBDC7CnffHV8a-112" value="Sedan" style="shape=partialRectangle;html=1;whiteSpace=wrap;connectable=0;strokeColor=inherit;overflow=hidden;fillColor=none;top=0;left=0;bottom=0;right=0;pointerEvents=1;" vertex="1" parent="WYO2JgKoBDC7CnffHV8a-108">
          <mxGeometry x="221" width="60" height="40" as="geometry">
            <mxRectangle width="60" height="40" as="alternateBounds" />
          </mxGeometry>
        </mxCell>
        <mxCell id="WYO2JgKoBDC7CnffHV8a-113" value="10:24 AM" style="shape=partialRectangle;html=1;whiteSpace=wrap;connectable=0;strokeColor=inherit;overflow=hidden;fillColor=none;top=0;left=0;bottom=0;right=0;pointerEvents=1;" vertex="1" parent="WYO2JgKoBDC7CnffHV8a-108">
          <mxGeometry x="281" width="70" height="40" as="geometry">
            <mxRectangle width="70" height="40" as="alternateBounds" />
          </mxGeometry>
        </mxCell>
        <mxCell id="WYO2JgKoBDC7CnffHV8a-114" value="01:00 PM" style="shape=partialRectangle;html=1;whiteSpace=wrap;connectable=0;strokeColor=inherit;overflow=hidden;fillColor=none;top=0;left=0;bottom=0;right=0;pointerEvents=1;" vertex="1" parent="WYO2JgKoBDC7CnffHV8a-108">
          <mxGeometry x="351" width="60" height="40" as="geometry">
            <mxRectangle width="60" height="40" as="alternateBounds" />
          </mxGeometry>
        </mxCell>
        <mxCell id="WYO2JgKoBDC7CnffHV8a-115" value="A-1" style="shape=partialRectangle;html=1;whiteSpace=wrap;connectable=0;strokeColor=inherit;overflow=hidden;fillColor=none;top=0;left=0;bottom=0;right=0;pointerEvents=1;" vertex="1" parent="WYO2JgKoBDC7CnffHV8a-108">
          <mxGeometry x="411" width="70" height="40" as="geometry">
            <mxRectangle width="70" height="40" as="alternateBounds" />
          </mxGeometry>
        </mxCell>
        <mxCell id="WYO2JgKoBDC7CnffHV8a-116" value="" style="shape=partialRectangle;html=1;whiteSpace=wrap;connectable=0;strokeColor=inherit;overflow=hidden;fillColor=none;top=0;left=0;bottom=0;right=0;pointerEvents=1;" vertex="1" parent="WYO2JgKoBDC7CnffHV8a-108">
          <mxGeometry x="481" width="150" height="40" as="geometry">
            <mxRectangle width="150" height="40" as="alternateBounds" />
          </mxGeometry>
        </mxCell>
        <mxCell id="WYO2JgKoBDC7CnffHV8a-117" value="" style="shape=tableRow;horizontal=0;startSize=0;swimlaneHead=0;swimlaneBody=0;strokeColor=inherit;top=0;left=0;bottom=0;right=0;collapsible=0;dropTarget=0;fillColor=none;points=[[0,0.5],[1,0.5]];portConstraint=eastwest;" vertex="1" parent="WYO2JgKoBDC7CnffHV8a-98">
          <mxGeometry y="90" width="631" height="40" as="geometry" />
        </mxCell>
        <mxCell id="WYO2JgKoBDC7CnffHV8a-118" value="2" style="shape=partialRectangle;html=1;whiteSpace=wrap;connectable=0;strokeColor=inherit;overflow=hidden;fillColor=none;top=0;left=0;bottom=0;right=0;pointerEvents=1;" vertex="1" parent="WYO2JgKoBDC7CnffHV8a-117">
          <mxGeometry width="31" height="40" as="geometry">
            <mxRectangle width="31" height="40" as="alternateBounds" />
          </mxGeometry>
        </mxCell>
        <mxCell id="WYO2JgKoBDC7CnffHV8a-119" value="Benz" style="shape=partialRectangle;html=1;whiteSpace=wrap;connectable=0;strokeColor=inherit;overflow=hidden;fillColor=none;top=0;left=0;bottom=0;right=0;pointerEvents=1;" vertex="1" parent="WYO2JgKoBDC7CnffHV8a-117">
          <mxGeometry x="31" width="90" height="40" as="geometry">
            <mxRectangle width="90" height="40" as="alternateBounds" />
          </mxGeometry>
        </mxCell>
        <mxCell id="WYO2JgKoBDC7CnffHV8a-120" value="UP-02-LH-2113" style="shape=partialRectangle;html=1;whiteSpace=wrap;connectable=0;strokeColor=inherit;overflow=hidden;fillColor=none;top=0;left=0;bottom=0;right=0;pointerEvents=1;" vertex="1" parent="WYO2JgKoBDC7CnffHV8a-117">
          <mxGeometry x="121" width="100" height="40" as="geometry">
            <mxRectangle width="100" height="40" as="alternateBounds" />
          </mxGeometry>
        </mxCell>
        <mxCell id="WYO2JgKoBDC7CnffHV8a-121" value="Convertible" style="shape=partialRectangle;html=1;whiteSpace=wrap;connectable=0;strokeColor=inherit;overflow=hidden;fillColor=none;top=0;left=0;bottom=0;right=0;pointerEvents=1;" vertex="1" parent="WYO2JgKoBDC7CnffHV8a-117">
          <mxGeometry x="221" width="60" height="40" as="geometry">
            <mxRectangle width="60" height="40" as="alternateBounds" />
          </mxGeometry>
        </mxCell>
        <mxCell id="WYO2JgKoBDC7CnffHV8a-122" value="01:45 AM" style="shape=partialRectangle;html=1;whiteSpace=wrap;connectable=0;strokeColor=inherit;overflow=hidden;fillColor=none;top=0;left=0;bottom=0;right=0;pointerEvents=1;" vertex="1" parent="WYO2JgKoBDC7CnffHV8a-117">
          <mxGeometry x="281" width="70" height="40" as="geometry">
            <mxRectangle width="70" height="40" as="alternateBounds" />
          </mxGeometry>
        </mxCell>
        <mxCell id="WYO2JgKoBDC7CnffHV8a-123" value="10:20 AM" style="shape=partialRectangle;html=1;whiteSpace=wrap;connectable=0;strokeColor=inherit;overflow=hidden;fillColor=none;top=0;left=0;bottom=0;right=0;pointerEvents=1;" vertex="1" parent="WYO2JgKoBDC7CnffHV8a-117">
          <mxGeometry x="351" width="60" height="40" as="geometry">
            <mxRectangle width="60" height="40" as="alternateBounds" />
          </mxGeometry>
        </mxCell>
        <mxCell id="WYO2JgKoBDC7CnffHV8a-124" value="B-2" style="shape=partialRectangle;html=1;whiteSpace=wrap;connectable=0;strokeColor=inherit;overflow=hidden;fillColor=none;top=0;left=0;bottom=0;right=0;pointerEvents=1;" vertex="1" parent="WYO2JgKoBDC7CnffHV8a-117">
          <mxGeometry x="411" width="70" height="40" as="geometry">
            <mxRectangle width="70" height="40" as="alternateBounds" />
          </mxGeometry>
        </mxCell>
        <mxCell id="WYO2JgKoBDC7CnffHV8a-125" value="" style="shape=partialRectangle;html=1;whiteSpace=wrap;connectable=0;strokeColor=inherit;overflow=hidden;fillColor=none;top=0;left=0;bottom=0;right=0;pointerEvents=1;" vertex="1" parent="WYO2JgKoBDC7CnffHV8a-117">
          <mxGeometry x="481" width="150" height="40" as="geometry">
            <mxRectangle width="150" height="40" as="alternateBounds" />
          </mxGeometry>
        </mxCell>
        <mxCell id="WYO2JgKoBDC7CnffHV8a-126" value="&lt;b&gt;&lt;font style=&quot;font-size: 15px;&quot;&gt;Car Parking&lt;/font&gt;&lt;/b&gt;" style="text;html=1;align=center;verticalAlign=middle;whiteSpace=wrap;rounded=0;" vertex="1" parent="1">
          <mxGeometry x="116.87" y="2490" width="110" height="30" as="geometry" />
        </mxCell>
        <mxCell id="WYO2JgKoBDC7CnffHV8a-127" value="Add New Car" style="text;html=1;align=center;verticalAlign=middle;whiteSpace=wrap;rounded=1;fillColor=#74FF49;strokeColor=#000000;glass=0;shadow=0;" vertex="1" parent="1">
          <mxGeometry x="621.87" y="2480" width="90" height="30" as="geometry" />
        </mxCell>
        <mxCell id="WYO2JgKoBDC7CnffHV8a-128" value="&lt;b&gt;View&lt;/b&gt;" style="text;html=1;align=center;verticalAlign=middle;whiteSpace=wrap;rounded=1;fillColor=light-dark(#FFCE9F,#392F3F);strokeColor=#121212;strokeWidth=2;" vertex="1" parent="1">
          <mxGeometry x="591.87" y="2585" width="30" height="20" as="geometry" />
        </mxCell>
        <mxCell id="WYO2JgKoBDC7CnffHV8a-129" value="&lt;b&gt;Edit&lt;/b&gt;" style="text;html=1;align=center;verticalAlign=middle;whiteSpace=wrap;rounded=1;fillColor=light-dark(#FFFF33,#392F3F);strokeColor=#050505;strokeWidth=2;" vertex="1" parent="1">
          <mxGeometry x="631.87" y="2585" width="30" height="20" as="geometry" />
        </mxCell>
        <mxCell id="WYO2JgKoBDC7CnffHV8a-130" value="&lt;font style=&quot;color: rgb(255, 255, 255);&quot;&gt;&lt;b style=&quot;&quot;&gt;Delete&lt;/b&gt;&lt;/font&gt;" style="text;html=1;align=center;verticalAlign=middle;whiteSpace=wrap;rounded=1;fillColor=light-dark(#FF0000,#392F3F);strokeColor=#000000;strokeWidth=2;" vertex="1" parent="1">
          <mxGeometry x="671.87" y="2585" width="50" height="20" as="geometry" />
        </mxCell>
        <mxCell id="WYO2JgKoBDC7CnffHV8a-131" value="&lt;b&gt;View&lt;/b&gt;" style="text;html=1;align=center;verticalAlign=middle;whiteSpace=wrap;rounded=1;fillColor=light-dark(#FFCE9F,#392F3F);strokeColor=#121212;strokeWidth=2;" vertex="1" parent="1">
          <mxGeometry x="591.87" y="2630" width="30" height="20" as="geometry" />
        </mxCell>
        <mxCell id="WYO2JgKoBDC7CnffHV8a-132" value="&lt;b&gt;Edit&lt;/b&gt;" style="text;html=1;align=center;verticalAlign=middle;whiteSpace=wrap;rounded=1;fillColor=light-dark(#FFFF33,#392F3F);strokeColor=#050505;strokeWidth=2;" vertex="1" parent="1">
          <mxGeometry x="631.87" y="2630" width="30" height="20" as="geometry" />
        </mxCell>
        <mxCell id="WYO2JgKoBDC7CnffHV8a-133" value="&lt;font style=&quot;color: rgb(255, 255, 255);&quot;&gt;&lt;b style=&quot;&quot;&gt;Delete&lt;/b&gt;&lt;/font&gt;" style="text;html=1;align=center;verticalAlign=middle;whiteSpace=wrap;rounded=1;fillColor=light-dark(#FF0000,#392F3F);strokeColor=#000000;strokeWidth=2;" vertex="1" parent="1">
          <mxGeometry x="671.87" y="2630" width="50" height="20" as="geometry" />
        </mxCell>
        <mxCell id="WYO2JgKoBDC7CnffHV8a-144" value="" style="rounded=0;whiteSpace=wrap;html=1;" vertex="1" parent="1">
          <mxGeometry x="242.87" y="2470" width="380" height="90" as="geometry" />
        </mxCell>
        <mxCell id="WYO2JgKoBDC7CnffHV8a-145" value="Confirm Deletion" style="text;html=1;align=center;verticalAlign=middle;whiteSpace=wrap;rounded=0;fontStyle=1;fontSize=14;" vertex="1" parent="1">
          <mxGeometry x="250.87" y="2475" width="123" height="30" as="geometry" />
        </mxCell>
        <mxCell id="WYO2JgKoBDC7CnffHV8a-146" value="&lt;span style=&quot;color: rgb(33, 37, 41); font-family: system-ui, -apple-system, &amp;quot;Segoe UI&amp;quot;, Roboto, &amp;quot;Helvetica Neue&amp;quot;, &amp;quot;Noto Sans&amp;quot;, &amp;quot;Liberation Sans&amp;quot;, Arial, sans-serif, &amp;quot;Apple Color Emoji&amp;quot;, &amp;quot;Segoe UI Emoji&amp;quot;, &amp;quot;Segoe UI Symbol&amp;quot;, &amp;quot;Noto Color Emoji&amp;quot;; text-align: start;&quot;&gt;&lt;font&gt;Are you sure you want to delete this car?&lt;/font&gt;&lt;/span&gt;" style="text;html=1;align=center;verticalAlign=middle;whiteSpace=wrap;rounded=0;" vertex="1" parent="1">
          <mxGeometry x="203.37" y="2503" width="320.5" height="30" as="geometry" />
        </mxCell>
        <mxCell id="WYO2JgKoBDC7CnffHV8a-147" value="&lt;font style=&quot;font-size: 8px;&quot;&gt;Cancel&lt;/font&gt;" style="rounded=1;whiteSpace=wrap;html=1;fillColor=#808080;fontColor=#FFFFFF;verticalAlign=bottom;" vertex="1" parent="1">
          <mxGeometry x="531.87" y="2535" width="31" height="15" as="geometry" />
        </mxCell>
        <mxCell id="WYO2JgKoBDC7CnffHV8a-148" value="&lt;font style=&quot;font-size: 8px; line-height: 100%;&quot;&gt;Delete&lt;/font&gt;" style="rounded=1;whiteSpace=wrap;html=1;fillColor=#FF0000;fontColor=#FFFFFF;strokeWidth=1;verticalAlign=bottom;" vertex="1" parent="1">
          <mxGeometry x="567.87" y="2535" width="27" height="15" as="geometry" />
        </mxCell>
        <mxCell id="WYO2JgKoBDC7CnffHV8a-149" value="X" style="text;html=1;align=center;verticalAlign=middle;whiteSpace=wrap;rounded=0;fontStyle=0;fontSize=14;" vertex="1" parent="1">
          <mxGeometry x="538.87" y="2475" width="123" height="30" as="geometry" />
        </mxCell>
      </root>
    </mxGraphModel>
  </diagram>
</mxfile>
